<svg xmlns="http://www.w3.org/2000/svg" width="120" height="120" viewBox="0 0 120 120" fill="none">
  <defs>
    <linearGradient id="scattered-bg" x1="12" y1="12" x2="108" y2="108" gradientUnits="userSpaceOnUse">
      <stop stop-color="#E8EBF3" />
      <stop offset="1" stop-color="#B7C0D8" />
    </linearGradient>
  </defs>
  <rect x="4" y="4" width="112" height="112" rx="28" fill="url(#scattered-bg)" />
  <circle cx="60" cy="62" r="34" fill="#F7F9FF" />
  <path d="M44 56C44 52 47 50 50 50C53 50 56 52 56 56C56 60 53 62 50 62C47 62 45 64 45 66" stroke="#445066" stroke-width="3" stroke-linecap="round" />
  <path d="M66 56C66 52 69 50 72 50C75 50 78 52 78 56C78 60 75 62 72 62C69 62 67 64 67 66" stroke="#445066" stroke-width="3" stroke-linecap="round" />
  <path d="M46 78C50 73 55 71 60 71C65 71 70 73 74 78" stroke="#445066" stroke-width="4" stroke-linecap="round" />
  <circle cx="91" cy="39" r="3" fill="#63708A" />
  <circle cx="98" cy="46" r="2" fill="#63708A" />
  <circle cx="84" cy="46" r="2" fill="#63708A" />
</svg>
